<svg width="153" height="575" fill="none" xmlns="http://www.w3.org/2000/svg"><path d="M99.564 107.148h53.262V75.596H99.564v-4.57l53.262-34.805V2.03L89.457 44.57 26 .097v36.826L75.57 70.85v4.746H26v31.552h49.57v4.747L26 145.82v37.178l64.072-44.824 62.754 42.187v-33.838l-53.262-34.804v-4.571zM82.602 240.215l44.384 2.9v35.596h-74.97v-46.055h1.67c5.888 4.746 15.38 6.68 28.916 7.559zM26 219.297v78.398H.951v29.004h51.065v-15.82h100.81v-95.977l-67.412-4.218c-17.49-1.055-26.719-3.164-33.398-11.778v-8.613H.95v29.004H26zm-1.318 150.205c0 25.312 14.062 37.178 37.617 47.285l90.527 38.848v-34.014L88.49 399.033v-1.67l64.336-23.73v-34.102l-94.922 41.485c-5.713-4.219-7.119-9.58-7.119-16.436 0-5.713.703-7.822.791-8.086H26.088c-.176.264-1.406 6.065-1.406 13.008zM26 537.373h100.898v36.65h25.928v-105.38h-25.928v36.562H26v32.168z" fill="#fff"/></svg>