<svg width="137" height="416" fill="none" xmlns="http://www.w3.org/2000/svg"><path d="M136.254 64.422c0-19.26-6.478-35.184-18.255-46.288C106.229 7.035 89.264.844 68.457.844v2c20.413 0 36.847 6.069 48.17 16.745 11.317 10.67 17.627 26.037 17.627 44.833h2zM68.457.844c-20.848 0-37.835 6.124-49.618 17.19C7.05 29.106.572 45.03.572 64.422h2c0-18.93 6.311-34.294 17.637-44.93C31.54 8.849 47.995 2.844 68.457 2.844v-2zM.572 64.422c0 19.304 6.478 35.185 18.268 46.235 11.783 11.043 28.77 17.167 49.617 17.167v-2c-20.46 0-36.917-6.005-48.25-16.626C8.883 98.583 2.573 83.262 2.573 64.422h-2zm67.885 63.402c20.805 0 37.769-6.124 49.54-17.167 11.779-11.05 18.257-26.931 18.257-46.235h-2c0 18.84-6.31 34.16-17.625 44.776-11.322 10.621-27.756 16.626-48.172 16.626v2zm39.078-63.402c0 8.55-3.752 15.661-10.474 20.665-6.746 5.023-16.537 7.954-28.604 7.954v2c12.367 0 22.615-3.001 29.799-8.35 7.209-5.367 11.279-13.064 11.279-22.27h-2zM68.457 93.04c-12.113 0-21.926-2.91-28.683-7.922-6.73-4.992-10.483-12.103-10.483-20.697h-2c0 9.248 4.07 16.946 11.292 22.303 7.196 5.338 17.466 8.316 29.874 8.316v-2zM29.291 64.42c0-8.684 3.755-15.816 10.483-20.806 6.756-5.011 16.568-7.9 28.683-7.9v-2c-12.406 0-22.677 2.955-29.874 8.294-7.225 5.358-11.292 13.08-11.292 22.413h2zm39.166-28.706c12.067 0 21.857 2.931 28.604 7.964 6.721 5.014 10.474 12.148 10.474 20.743h2c0-9.247-4.068-16.967-11.278-22.346-7.185-5.36-17.434-8.361-29.8-8.361v2zM5 267.449H4v1h1v-1zm126.826 0v1h1v-1h-1zm0-32.168h1v-1h-1v1zm-49.746 0h-1v1h1v-1zm0-50.537v-1h-1v1h1zm49.746 0v1h1v-1h-1zm0-32.256h1v-1h-1v1zM5 152.488v-1H4v1h1zm0 32.256H4v1h1v-1zm51.152 0h1v-1h-1v1zm0 50.537v1h1v-1h-1zm-51.152 0v-1H4v1h1zm0 33.168h126.826v-2H5v2zm127.826-1v-32.168h-2v32.168h2zm-1-33.168H82.08v2h49.746v-2zm-48.746 1v-50.537h-2v50.537h2zm-1-49.537h49.746v-2H82.08v2zm50.746-1v-32.256h-2v32.256h2zm-1-33.256H5v2h126.826v-2zM4 152.488v32.256h2v-32.256H4zm1 33.256h51.152v-2H5v2zm50.152-1v50.537h2v-50.537h-2zm1 49.537H5v2h51.152v-2zm-52.152 1v32.168h2v-32.168H4zm1 147.305v-1H4v1h1zm0 32.168H4v1h1v-1zm126.826 0v1h1v-1h-1zm0-30.85h1v-.539l-.45-.296-.55.835zm-77.52-50.976h-1v.539l.451.296.55-.835zm0-1.67v-1h-1v1h1zm77.52 0v1h1v-1h-1zm0-32.168h1v-1h-1v1zM5 299.09v-1H4v1h1zm0 30.849H4v.539l.45.297.55-.836zm77.432 50.977h1v-.539l-.45-.296-.55.835zm0 1.67v1h1v-1h-1zm-78.432 0v32.168h2v-32.168H4zm1 33.168h126.826v-2H5v2zm127.826-1v-30.85h-2v30.85h2zm-.45-31.685l-77.52-50.977-1.099 1.671 77.52 50.977 1.099-1.671zm-77.07-50.141v-1.67h-2v1.67h2zm-1-.67h77.52v-2h-77.52v2zm78.52-1V299.09h-2v32.168h2zm-1-33.168H5v2h126.826v-2zM4 299.09v30.849h2V299.09H4zm.45 31.685l77.432 50.976 1.1-1.67L5.55 329.104l-1.1 1.671zm76.982 50.141v1.67h2v-1.67h-2zm1 .67H5v2h77.432v-2z" fill="#fff"/></svg>