<svg width="137" height="908" fill="none" xmlns="http://www.w3.org/2000/svg"><path d="M30.928 88.865v1h1v-1h-1zm0-54.668v-1h-1v1h1zm25.927 0h1v-1h-1v1zm0 51.416h-1v1h1v-1zm23.73 0v1h1v-1h-1zm0-51.416v-1h-1v1h1zm25.313 0h1v-1h-1v1zm0 54.668h-1v1h1v-1zm25.928 0v1h1v-1h-1zm0-86.924h1v-1h-1v1zM5 1.941v-1H4v1h1zm0 86.924H4v1h1v-1zm26.928 0V34.197h-2v54.668h2zm-1-53.668h25.927v-2H30.928v2zm24.927-1v51.416h2V34.197h-2zm1 52.416h23.73v-2h-23.73v2zm24.73-1V34.197h-2v51.416h2zm-1-50.416h25.313v-2H80.586v2zm24.313-1v54.668h2V34.197h-2zm1 55.668h25.928v-2h-25.928v2zm26.928-1V1.941h-2v86.924h2zm-1-87.924H5v2h126.826v-2zM4 1.941v86.924h2V1.941H4zm1 87.924h25.928v-2H5v2zm0 19.215l.52-.854-1.52-.925v1.779h1zm0 34.277H4v.565l.483.291.517-.856zm40.166 24.258h1v-.564l-.483-.292-.517.856zm0 1.67l.514.858.486-.291v-.567h-1zM5 193.367l-.514-.857-.486.291v.566h1zm0 36.299H4v1.814l1.534-.968-.534-.846zM68.633 189.5l.54-.842-.536-.343-.538.339.534.846zm63.193 40.518l-.54.841 1.54.988v-1.829h-1zm0-35.86h1v-.593l-.521-.284-.479.877zm-42.012-22.939h-1v.593l.521.284.48-.877zm0-1.67l-.476-.879-.524.283v.596h1zm42.012-22.764l.477.879.523-.283v-.596h-1zm0-37.617h1v-1.794l-1.526.943.526.851zm-62.842 38.848l-.52.854.525.319.521-.323-.526-.85zM4 109.08v34.277h2V109.08H4zm.483 35.133l40.166 24.258 1.034-1.712-40.166-24.258-1.034 1.712zm39.683 23.402v1.67h2v-1.67h-2zm.486.812L4.486 192.51l1.028 1.715 40.166-24.082-1.028-1.716zM4 193.367v36.299h2v-36.299H4zm1.534 37.145l63.633-40.166-1.068-1.692L4.466 228.82l1.068 1.692zm62.56-40.17l63.192 40.517 1.08-1.683-63.193-40.518-1.08 1.684zm64.732 39.676v-35.86h-2v35.86h2zm-.521-36.737l-42.011-22.94-.959 1.755 42.012 22.94.958-1.755zm-41.49-22.062v-1.67h-2v1.67h2zm-.524-.791l42.012-22.764-.953-1.758-42.012 22.764.953 1.758zm42.535-23.643v-37.617h-2v37.617h2zm-1.526-38.468l-62.842 38.848 1.052 1.701 62.842-38.847-1.052-1.702zm-61.796 38.844L5.52 108.226l-1.04 1.708 63.985 38.936 1.04-1.709zm66.75 156.245c0-19.26-6.478-35.183-18.255-46.288-11.77-11.098-28.735-17.29-49.542-17.29v2c20.413 0 36.847 6.069 48.17 16.746 11.317 10.67 17.627 26.036 17.627 44.832h2zm-67.797-63.578c-20.848 0-37.835 6.124-49.618 17.19C7.05 268.091.572 284.016.572 303.406h2c0-18.929 6.311-34.294 17.637-44.93 11.332-10.643 27.787-16.648 48.248-16.648v-2zM.572 303.406c0 19.304 6.478 35.185 18.268 46.235 11.783 11.044 28.77 17.168 49.617 17.168v-2c-20.46 0-36.917-6.005-48.25-16.627-11.325-10.615-17.635-25.935-17.635-44.776h-2zm67.885 63.403c20.805 0 37.769-6.125 49.54-17.168 11.779-11.05 18.257-26.931 18.257-46.235h-2c0 18.841-6.31 34.161-17.625 44.776-11.322 10.622-27.756 16.627-48.172 16.627v2zm39.078-63.403c0 8.549-3.752 15.661-10.474 20.665-6.746 5.023-16.537 7.954-28.604 7.954v2c12.367 0 22.615-3.001 29.799-8.349 7.209-5.368 11.279-13.065 11.279-22.27h-2zm-39.078 28.619c-12.113 0-21.926-2.91-28.683-7.922-6.73-4.992-10.483-12.103-10.483-20.697h-2c0 9.248 4.07 16.947 11.292 22.304 7.196 5.337 17.466 8.315 29.874 8.315v-2zm-39.166-28.619c0-8.684 3.755-15.816 10.483-20.807 6.756-5.011 16.568-7.9 28.683-7.9v-2c-12.406 0-22.677 2.956-29.874 8.294-7.225 5.359-11.292 13.08-11.292 22.413h2zm39.166-28.707c12.067 0 21.857 2.931 28.604 7.965 6.721 5.014 10.474 12.147 10.474 20.742h2c0-9.247-4.068-16.966-11.278-22.345-7.185-5.36-17.434-8.362-29.8-8.362v2zm39.023 147.272h1v-1h-1v1zm-35.332 0v-1h-1v1h1zm-22.763 0h1v-1h-1v1zm0 16.699l.44.898.56-.274v-.624h-1zM5 460.379l-.44-.898-.56.274v.624h1zm0 36.211H4v1.64l1.458-.751L5 496.59zm49.13-25.313l.917-.4-.426-.977-.948.488.458.889zm77.696-81.562h1v-1h-1v1zM5 389.715v-1H4v1h1zm0 32.256H4v1h1v-1zm101.48 0v18.984h2v-18.984h-2zm0 18.984c0 5.557-1.673 10.042-4.554 13.127-2.874 3.079-7.034 4.857-12.2 4.857v2c5.646 0 10.362-1.957 13.662-5.492 3.294-3.528 5.092-8.535 5.092-14.492h-2zm-16.754 17.984c-5.273 0-9.38-1.681-12.177-4.68-2.805-3.009-4.4-7.463-4.4-13.216h-2c0 6.113 1.7 11.106 4.937 14.58 3.246 3.482 7.928 5.316 13.64 5.316v-2zm-16.578-17.896v-19.072h-2v19.072h2zm-1-18.072h35.332v-2H72.148v2zm-23.763-1v16.699h2v-16.699h-2zm.56 15.801L4.561 459.481l.878 1.796 44.385-21.709-.879-1.796zM4 460.379v36.211h2v-36.211H4zm1.458 37.1l49.13-25.313-.915-1.778-49.131 25.313.916 1.778zm47.756-25.801c6.254 14.32 20.904 22.22 36.776 22.22v-2c-15.24 0-29.068-7.568-34.943-21.021l-1.833.801zm36.776 22.22c13.334 0 24.085-4.527 31.49-12.917 7.39-8.374 11.346-20.479 11.346-35.456h-2c0 14.643-3.866 26.224-10.846 34.132-6.965 7.892-17.132 12.241-29.99 12.241v2zm42.836-48.373v-55.81h-2v55.81h2zm-1-56.81H5v2h126.826v-2zM4 389.715v32.256h2v-32.256H4zm1 33.256h44.385v-2H5v2zm0 164.674H4v.734l.7.22.3-.954zm126.826 39.814l-.299.954 1.299.408v-1.362h-1zm0-34.805h1v-.778l-.754-.191-.246.969zm-93.34-23.642h-1v.778l.755.191.245-.969zm0-1.67l-.252-.968-.748.195v.773h1zm93.34-24.346l.253.968.747-.195v-.773h-1zm0-37.002h1v-1.373l-1.307.421.307.952zM5 546.863l-.307-.952-.693.224v.728h1zm-.3 41.736l126.827 39.814.599-1.908L5.299 586.69l-.599 1.909zm128.126 38.86v-34.805h-2v34.805h2zm-.754-35.774l-93.34-23.643-.491 1.939 93.34 23.643.491-1.939zm-92.586-22.673v-1.67h-2v1.67h2zm-.747-.703l93.34-24.345-.505-1.936-93.34 24.346.505 1.935zm94.087-25.313v-37.002h-2v37.002h2zm-1.307-37.954L4.693 545.911l.614 1.904 126.826-40.869-.614-1.904zM4 546.863v40.782h2v-40.782H4zm1 134.209H4v1h1v-1zm126.826 0v1h1v-1h-1zm0-32.256h1v-1h-1v1zM5 648.816v-1H4v1h1zm0 33.256h126.826v-2H5v2zm127.826-1v-32.256h-2v32.256h2zm-1-33.256H5v2h126.826v-2zM4 648.816v32.256h2v-32.256H4zm27.63 148.36v1h1v-1h-1zm0-53.877v-1h-1v1h1zm100.196 0v1h1v-1h-1zm0-32.256h1v-1h-1v1zM5 711.043v-1H4v1h1zm0 86.133H4v1h1v-1zm27.63 0v-53.877h-2v53.877h2zm-1-52.877h100.196v-2H31.631v2zm101.196-1v-32.256h-2v32.256h2zm-1-33.256H5v2h126.826v-2zM4 711.043v86.133h2v-86.133H4zm1 87.133h26.63v-2H5v2zm26.63 108.687v1h1v-1h-1zm0-53.877v-1h-1v1h1zm100.196 0v1h1v-1h-1zm0-32.256h1v-1h-1v1zM5 820.73v-1H4v1h1zm0 86.133H4v1h1v-1zm27.63 0v-53.877h-2v53.877h2zm-1-52.877h100.196v-2H31.631v2zm101.196-1V820.73h-2v32.256h2zm-1-33.256H5v2h126.826v-2zM4 820.73v86.133h2V820.73H4zm1 87.133h26.63v-2H5v2z" fill="#fff"/></svg>