<svg width="137" height="908" viewBox="0 0 137 908" fill="none" xmlns="http://www.w3.org/2000/svg">
<path d="M30.9277 88.8652L30.9277 89.8652L31.9277 89.8652L31.9277 88.8652L30.9277 88.8652ZM30.9277 34.1973L30.9277 33.1973L29.9277 33.1973L29.9277 34.1973L30.9277 34.1973ZM56.8555 34.1973L57.8555 34.1973L57.8555 33.1973L56.8555 33.1973L56.8555 34.1973ZM56.8555 85.6133L55.8555 85.6133L55.8555 86.6133L56.8555 86.6133L56.8555 85.6133ZM80.5859 85.6133L80.5859 86.6133L81.5859 86.6133L81.5859 85.6133L80.5859 85.6133ZM80.5859 34.1973L80.5859 33.1973L79.5859 33.1973L79.5859 34.1973L80.5859 34.1973ZM105.898 34.1973L106.898 34.1973L106.898 33.1973L105.898 33.1973L105.898 34.1973ZM105.898 88.8652L104.898 88.8652L104.898 89.8652L105.898 89.8652L105.898 88.8652ZM131.826 88.8652L131.826 89.8652L132.826 89.8652L132.826 88.8652L131.826 88.8652ZM131.826 1.9414L132.826 1.9414L132.826 0.941404L131.826 0.941404L131.826 1.9414ZM5 1.9414L5 0.941399L4 0.941399L4 1.9414L5 1.9414ZM5 88.8652L4 88.8652L4 89.8652L5 89.8652L5 88.8652ZM31.9277 88.8652L31.9277 34.1973L29.9277 34.1973L29.9277 88.8652L31.9277 88.8652ZM30.9277 35.1973L56.8555 35.1973L56.8555 33.1973L30.9277 33.1973L30.9277 35.1973ZM55.8555 34.1973L55.8555 85.6133L57.8555 85.6133L57.8555 34.1973L55.8555 34.1973ZM56.8555 86.6133L80.5859 86.6133L80.5859 84.6133L56.8555 84.6133L56.8555 86.6133ZM81.5859 85.6133L81.5859 34.1973L79.5859 34.1973L79.5859 85.6133L81.5859 85.6133ZM80.5859 35.1973L105.898 35.1973L105.898 33.1973L80.5859 33.1973L80.5859 35.1973ZM104.898 34.1973L104.898 88.8652L106.898 88.8652L106.898 34.1973L104.898 34.1973ZM105.898 89.8652L131.826 89.8652L131.826 87.8652L105.898 87.8652L105.898 89.8652ZM132.826 88.8652L132.826 1.9414L130.826 1.9414L130.826 88.8652L132.826 88.8652ZM131.826 0.941404L5 0.941399L5 2.9414L131.826 2.9414L131.826 0.941404ZM4 1.9414L4 88.8652L6 88.8652L6 1.9414L4 1.9414ZM5 89.8652L30.9277 89.8652L30.9277 87.8652L5 87.8652L5 89.8652ZM4.99999 109.08L5.51983 108.226L3.99999 107.301L3.99999 109.08L4.99999 109.08ZM4.99999 143.357L3.99999 143.357L3.99999 143.922L4.48303 144.213L4.99999 143.357ZM45.166 167.615L46.166 167.615L46.166 167.051L45.683 166.759L45.166 167.615ZM45.166 169.285L45.6802 170.143L46.166 169.852L46.166 169.285L45.166 169.285ZM4.99999 193.367L4.48577 192.51L3.99999 192.801L3.99999 193.367L4.99999 193.367ZM4.99999 229.666L3.99999 229.666L3.99999 231.48L5.53376 230.512L4.99999 229.666ZM68.6328 189.5L69.1726 188.658L68.637 188.315L68.099 188.654L68.6328 189.5ZM131.826 230.018L131.286 230.859L132.826 231.847L132.826 230.018L131.826 230.018ZM131.826 194.158L132.826 194.158L132.826 193.565L132.305 193.281L131.826 194.158ZM89.8144 171.219L88.8144 171.219L88.8144 171.812L89.3352 172.096L89.8144 171.219ZM89.8144 169.549L89.338 168.67L88.8144 168.953L88.8144 169.549L89.8144 169.549ZM131.826 146.785L132.303 147.664L132.826 147.381L132.826 146.785L131.826 146.785ZM131.826 109.168L132.826 109.168L132.826 107.374L131.3 108.317L131.826 109.168ZM68.9844 148.016L68.4645 148.87L68.9885 149.189L69.5102 148.866L68.9844 148.016ZM3.99999 109.08L3.99999 143.357L5.99999 143.357L5.99999 109.08L3.99999 109.08ZM4.48303 144.213L44.649 168.471L45.683 166.759L5.51696 142.501L4.48303 144.213ZM44.166 167.615L44.166 169.285L46.166 169.285L46.166 167.615L44.166 167.615ZM44.6518 168.427L4.48577 192.51L5.51421 194.225L45.6802 170.143L44.6518 168.427ZM3.99999 193.367L3.99999 229.666L5.99999 229.666L5.99999 193.367L3.99999 193.367ZM5.53376 230.512L69.1666 190.346L68.099 188.654L4.46622 228.82L5.53376 230.512ZM68.0931 190.342L131.286 230.859L132.366 229.176L69.1726 188.658L68.0931 190.342ZM132.826 230.018L132.826 194.158L130.826 194.158L130.826 230.018L132.826 230.018ZM132.305 193.281L90.2937 170.341L89.3352 172.096L131.347 195.036L132.305 193.281ZM90.8144 171.219L90.8144 169.549L88.8144 169.549L88.8144 171.219L90.8144 171.219ZM90.2908 170.428L132.303 147.664L131.35 145.906L89.338 168.67L90.2908 170.428ZM132.826 146.785L132.826 109.168L130.826 109.168L130.826 146.785L132.826 146.785ZM131.3 108.317L68.4585 147.165L69.5102 148.866L132.352 110.019L131.3 108.317ZM69.5042 147.161L5.51983 108.226L4.48016 109.934L68.4645 148.87L69.5042 147.161ZM136.254 303.406C136.254 284.146 129.776 268.223 117.999 257.118C106.229 246.02 89.2644 239.828 68.457 239.828L68.457 241.828C88.8703 241.828 105.304 247.897 116.627 258.574C127.944 269.244 134.254 284.61 134.254 303.406L136.254 303.406ZM68.457 239.828C47.609 239.828 30.6223 245.952 18.8393 257.018C7.04944 268.091 0.572253 284.016 0.572252 303.406L2.57225 303.406C2.57225 284.477 8.88315 269.112 20.2085 258.476C31.5407 247.833 47.9964 241.828 68.457 241.828L68.457 239.828ZM0.572252 303.406C0.572251 322.71 7.05029 338.591 18.8401 349.641C30.6228 360.685 47.6091 366.809 68.457 366.809L68.457 364.809C47.9964 364.809 31.5403 358.804 20.2078 348.182C8.88229 337.567 2.57225 322.247 2.57225 303.406L0.572252 303.406ZM68.457 366.809C89.2616 366.809 106.226 360.684 117.997 349.641C129.776 338.591 136.254 322.71 136.254 303.406L134.254 303.406C134.254 322.247 127.944 337.567 116.629 348.182C105.307 358.804 88.8732 364.809 68.457 364.809L68.457 366.809ZM107.535 303.406C107.535 311.955 103.783 319.067 97.0615 324.071C90.3148 329.094 80.5241 332.025 68.457 332.025L68.457 334.025C80.8235 334.025 91.0719 331.024 98.2558 325.676C105.465 320.308 109.535 312.611 109.535 303.406L107.535 303.406ZM68.457 332.025C56.3436 332.025 46.5311 329.115 39.7742 324.103C33.0439 319.111 29.291 312 29.291 303.406L27.291 303.406C27.291 312.654 31.3604 320.353 38.5827 325.71C45.7785 331.047 56.0489 334.025 68.457 334.025L68.457 332.025ZM29.291 303.406C29.291 294.722 33.0461 287.59 39.7742 282.599C46.5301 277.588 56.342 274.699 68.457 274.699L68.457 272.699C56.0506 272.699 45.7795 275.655 38.5827 280.993C31.3582 286.352 27.291 294.073 27.291 303.406L29.291 303.406ZM68.457 274.699C80.5242 274.699 90.3143 277.63 97.0607 282.664C103.782 287.678 107.535 294.811 107.535 303.406L109.535 303.406C109.535 294.159 105.467 286.44 98.2567 281.061C91.0723 275.701 80.8234 272.699 68.457 272.699L68.457 274.699ZM107.48 421.971L108.48 421.971L108.48 420.971L107.48 420.971L107.48 421.971ZM72.1484 421.971L72.1484 420.971L71.1484 420.971L71.1484 421.971L72.1484 421.971ZM49.3847 421.971L50.3847 421.971L50.3847 420.971L49.3847 420.971L49.3847 421.971ZM49.3847 438.67L49.8241 439.568L50.3847 439.294L50.3847 438.67L49.3847 438.67ZM4.99998 460.379L4.5606 459.481L3.99998 459.755L3.99998 460.379L4.99998 460.379ZM4.99998 496.59L3.99998 496.59L3.99998 498.23L5.45797 497.479L4.99998 496.59ZM54.1308 471.277L55.0473 470.877L54.6206 469.9L53.6728 470.388L54.1308 471.277ZM131.826 389.715L132.826 389.715L132.826 388.715L131.826 388.715L131.826 389.715ZM4.99998 389.715L4.99998 388.715L3.99998 388.715L3.99998 389.715L4.99998 389.715ZM4.99998 421.971L3.99998 421.971L3.99998 422.971L4.99998 422.971L4.99998 421.971ZM106.48 421.971L106.48 440.955L108.48 440.955L108.48 421.971L106.48 421.971ZM106.48 440.955C106.48 446.512 104.807 450.997 101.926 454.082C99.0522 457.161 94.8916 458.939 89.7265 458.939L89.7265 460.939C95.372 460.939 100.088 458.982 103.388 455.447C106.682 451.919 108.48 446.912 108.48 440.955L106.48 440.955ZM89.7265 458.939C84.4532 458.939 80.3452 457.258 77.5491 454.259C74.7445 451.25 73.1484 446.796 73.1484 441.043L71.1484 441.043C71.1484 447.156 72.8482 452.149 76.0861 455.623C79.3325 459.105 84.0136 460.939 89.7265 460.939L89.7265 458.939ZM73.1484 441.043L73.1484 421.971L71.1484 421.971L71.1484 441.043L73.1484 441.043ZM72.1484 422.971L107.48 422.971L107.48 420.971L72.1484 420.971L72.1484 422.971ZM48.3847 421.971L48.3847 438.67L50.3847 438.67L50.3847 421.971L48.3847 421.971ZM48.9454 437.772L4.5606 459.481L5.43936 461.277L49.8241 439.568L48.9454 437.772ZM3.99998 460.379L3.99998 496.59L5.99998 496.59L5.99998 460.379L3.99998 460.379ZM5.45797 497.479L54.5888 472.166L53.6728 470.388L4.54199 495.701L5.45797 497.479ZM53.2144 471.678C59.4683 485.998 74.1178 493.898 89.9902 493.898L89.9902 491.898C74.7493 491.898 60.9223 484.33 55.0473 470.877L53.2144 471.678ZM89.9902 493.898C103.324 493.898 114.075 489.371 121.48 480.981C128.87 472.607 132.826 460.502 132.826 445.525L130.826 445.525C130.826 460.168 126.96 471.749 119.98 479.657C113.015 487.549 102.848 491.898 89.9902 491.898L89.9902 493.898ZM132.826 445.525L132.826 389.715L130.826 389.715L130.826 445.525L132.826 445.525ZM131.826 388.715L4.99998 388.715L4.99998 390.715L131.826 390.715L131.826 388.715ZM3.99998 389.715L3.99998 421.971L5.99998 421.971L5.99998 389.715L3.99998 389.715ZM4.99998 422.971L49.3847 422.971L49.3847 420.971L4.99998 420.971L4.99998 422.971ZM4.99997 587.645L3.99997 587.645L3.99997 588.379L4.70046 588.599L4.99997 587.645ZM131.826 627.459L131.527 628.413L132.826 628.821L132.826 627.459L131.826 627.459ZM131.826 592.654L132.826 592.654L132.826 591.876L132.072 591.685L131.826 592.654ZM38.4863 569.012L37.4863 569.012L37.4863 569.79L38.2408 569.981L38.4863 569.012ZM38.4863 567.342L38.2339 566.374L37.4863 566.569L37.4863 567.342L38.4863 567.342ZM131.826 542.996L132.079 543.964L132.826 543.769L132.826 542.996L131.826 542.996ZM131.826 505.994L132.826 505.994L132.826 504.621L131.519 505.042L131.826 505.994ZM4.99998 546.863L4.69326 545.911L3.99998 546.135L3.99998 546.863L4.99998 546.863ZM4.70046 588.599L131.527 628.413L132.126 626.505L5.29949 586.69L4.70046 588.599ZM132.826 627.459L132.826 592.654L130.826 592.654L130.826 627.459L132.826 627.459ZM132.072 591.685L38.7318 568.042L38.2408 569.981L131.581 593.624L132.072 591.685ZM39.4863 569.012L39.4863 567.342L37.4863 567.342L37.4863 569.012L39.4863 569.012ZM38.7387 568.309L132.079 543.964L131.574 542.028L38.2339 566.374L38.7387 568.309ZM132.826 542.996L132.826 505.994L130.826 505.994L130.826 542.996L132.826 542.996ZM131.519 505.042L4.69326 545.911L5.30669 547.815L132.133 506.946L131.519 505.042ZM3.99998 546.863L3.99997 587.645L5.99997 587.645L5.99998 546.863L3.99998 546.863ZM4.99997 681.072L3.99997 681.072L3.99997 682.072L4.99997 682.072L4.99997 681.072ZM131.826 681.072L131.826 682.072L132.826 682.072L132.826 681.072L131.826 681.072ZM131.826 648.816L132.826 648.816L132.826 647.816L131.826 647.816L131.826 648.816ZM4.99997 648.816L4.99997 647.816L3.99997 647.816L3.99997 648.816L4.99997 648.816ZM4.99997 682.072L131.826 682.072L131.826 680.072L4.99997 680.072L4.99997 682.072ZM132.826 681.072L132.826 648.816L130.826 648.816L130.826 681.072L132.826 681.072ZM131.826 647.816L4.99997 647.816L4.99997 649.816L131.826 649.816L131.826 647.816ZM3.99997 648.816L3.99997 681.072L5.99997 681.072L5.99997 648.816L3.99997 648.816ZM31.6308 797.176L31.6308 798.176L32.6308 798.176L32.6308 797.176L31.6308 797.176ZM31.6308 743.299L31.6308 742.299L30.6308 742.299L30.6308 743.299L31.6308 743.299ZM131.826 743.299L131.826 744.299L132.826 744.299L132.826 743.299L131.826 743.299ZM131.826 711.043L132.826 711.043L132.826 710.043L131.826 710.043L131.826 711.043ZM4.99997 711.043L4.99997 710.043L3.99997 710.043L3.99997 711.043L4.99997 711.043ZM4.99996 797.176L3.99996 797.176L3.99996 798.176L4.99996 798.176L4.99996 797.176ZM32.6308 797.176L32.6308 743.299L30.6308 743.299L30.6308 797.176L32.6308 797.176ZM31.6308 744.299L131.826 744.299L131.826 742.299L31.6308 742.299L31.6308 744.299ZM132.826 743.299L132.826 711.043L130.826 711.043L130.826 743.299L132.826 743.299ZM131.826 710.043L4.99997 710.043L4.99997 712.043L131.826 712.043L131.826 710.043ZM3.99997 711.043L3.99996 797.176L5.99996 797.176L5.99997 711.043L3.99997 711.043ZM4.99996 798.176L31.6308 798.176L31.6308 796.176L4.99996 796.176L4.99996 798.176ZM31.6308 906.863L31.6308 907.863L32.6308 907.863L32.6308 906.863L31.6308 906.863ZM31.6308 852.986L31.6308 851.986L30.6308 851.986L30.6308 852.986L31.6308 852.986ZM131.826 852.986L131.826 853.986L132.826 853.986L132.826 852.986L131.826 852.986ZM131.826 820.73L132.826 820.73L132.826 819.73L131.826 819.73L131.826 820.73ZM4.99996 820.73L4.99996 819.73L3.99996 819.73L3.99996 820.73L4.99996 820.73ZM4.99996 906.863L3.99996 906.863L3.99996 907.863L4.99996 907.863L4.99996 906.863ZM32.6308 906.863L32.6308 852.986L30.6308 852.986L30.6308 906.863L32.6308 906.863ZM31.6308 853.986L131.826 853.986L131.826 851.986L31.6308 851.986L31.6308 853.986ZM132.826 852.986L132.826 820.73L130.826 820.73L130.826 852.986L132.826 852.986ZM131.826 819.73L4.99996 819.73L4.99996 821.73L131.826 821.73L131.826 819.73ZM3.99996 820.73L3.99996 906.863L5.99996 906.863L5.99996 820.73L3.99996 820.73ZM4.99996 907.863L31.6308 907.863L31.6308 905.863L4.99996 905.863L4.99996 907.863Z" fill="white"/>
</svg>
