<svg width="137" height="416" viewBox="0 0 137 416" fill="none" xmlns="http://www.w3.org/2000/svg">
<path d="M136.254 64.4219C136.254 45.1616 129.776 29.2383 117.999 18.134C106.229 7.03547 89.2644 0.843746 68.457 0.843745L68.457 2.84375C88.8703 2.84375 105.304 8.91277 116.627 19.5891C127.944 30.2598 134.254 45.6255 134.254 64.4219L136.254 64.4219ZM68.457 0.843745C47.6091 0.843744 30.6223 6.9676 18.8393 18.0338C7.04945 29.1064 0.572263 45.0312 0.572262 64.4219L2.57226 64.4219C2.57226 45.4922 8.88316 30.128 20.2085 19.4916C31.5408 8.84879 47.9964 2.84374 68.457 2.84375L68.457 0.843745ZM0.572262 64.4219C0.572262 83.7259 7.0503 99.6068 18.8401 110.657C30.6228 121.7 47.6091 127.824 68.457 127.824L68.457 125.824C47.9964 125.824 31.5403 119.819 20.2078 109.198C8.88231 98.5827 2.57226 83.2624 2.57226 64.4219L0.572262 64.4219ZM68.457 127.824C89.2616 127.824 106.226 121.7 117.997 110.657C129.776 99.6065 136.254 83.7259 136.254 64.4219L134.254 64.4219C134.254 83.2624 127.944 98.5829 116.629 109.198C105.307 119.819 88.8732 125.824 68.457 125.824L68.457 127.824ZM107.535 64.4219C107.535 72.9711 103.783 80.0831 97.0615 85.087C90.3148 90.1098 80.5242 93.041 68.457 93.041L68.457 95.041C80.8235 95.041 91.0719 92.0396 98.2558 86.6913C105.465 81.3241 109.535 73.6266 109.535 64.4219L107.535 64.4219ZM68.457 93.041C56.3437 93.041 46.5311 90.1307 39.7742 85.1189C33.0439 80.1268 29.291 73.0159 29.291 64.4219L27.291 64.4219C27.291 73.6696 31.3604 81.3683 38.5827 86.7253C45.7785 92.0626 56.0489 95.041 68.457 95.041L68.457 93.041ZM29.291 64.4219C29.291 55.7372 33.0461 48.6054 39.7742 43.6149C46.5301 38.6039 56.342 35.7148 68.457 35.7148L68.457 33.7148C56.0506 33.7148 45.7795 36.6705 38.5827 42.0086C31.3582 47.3673 27.291 55.089 27.291 64.4219L29.291 64.4219ZM68.457 35.7148C80.5242 35.7148 90.3144 38.646 97.0607 43.6792C103.782 48.6933 107.535 55.8271 107.535 64.4219L109.535 64.4219C109.535 55.1749 105.467 47.4551 98.2567 42.0762C91.0724 36.7163 80.8234 33.7148 68.457 33.7148L68.457 35.7148ZM4.99999 267.449L3.99999 267.449L3.99999 268.449L4.99999 268.449L4.99999 267.449ZM131.826 267.449L131.826 268.449L132.826 268.449L132.826 267.449L131.826 267.449ZM131.826 235.281L132.826 235.281L132.826 234.281L131.826 234.281L131.826 235.281ZM82.0801 235.281L81.0801 235.281L81.0801 236.281L82.0801 236.281L82.0801 235.281ZM82.0801 184.744L82.0801 183.744L81.0801 183.744L81.0801 184.744L82.0801 184.744ZM131.826 184.744L131.826 185.744L132.826 185.744L132.826 184.744L131.826 184.744ZM131.826 152.488L132.826 152.488L132.826 151.488L131.826 151.488L131.826 152.488ZM4.99999 152.488L4.99999 151.488L3.99999 151.488L3.99999 152.488L4.99999 152.488ZM4.99999 184.744L3.99999 184.744L3.99999 185.744L4.99999 185.744L4.99999 184.744ZM56.1523 184.744L57.1523 184.744L57.1523 183.744L56.1523 183.744L56.1523 184.744ZM56.1523 235.281L56.1523 236.281L57.1523 236.281L57.1523 235.281L56.1523 235.281ZM4.99999 235.281L4.99999 234.281L3.99999 234.281L3.99999 235.281L4.99999 235.281ZM4.99999 268.449L131.826 268.449L131.826 266.449L4.99999 266.449L4.99999 268.449ZM132.826 267.449L132.826 235.281L130.826 235.281L130.826 267.449L132.826 267.449ZM131.826 234.281L82.0801 234.281L82.0801 236.281L131.826 236.281L131.826 234.281ZM83.0801 235.281L83.0801 184.744L81.0801 184.744L81.0801 235.281L83.0801 235.281ZM82.0801 185.744L131.826 185.744L131.826 183.744L82.0801 183.744L82.0801 185.744ZM132.826 184.744L132.826 152.488L130.826 152.488L130.826 184.744L132.826 184.744ZM131.826 151.488L4.99999 151.488L4.99999 153.488L131.826 153.488L131.826 151.488ZM3.99999 152.488L3.99999 184.744L5.99999 184.744L5.99999 152.488L3.99999 152.488ZM4.99999 185.744L56.1523 185.744L56.1523 183.744L4.99999 183.744L4.99999 185.744ZM55.1523 184.744L55.1523 235.281L57.1523 235.281L57.1523 184.744L55.1523 184.744ZM56.1523 234.281L4.99999 234.281L4.99999 236.281L56.1523 236.281L56.1523 234.281ZM3.99999 235.281L3.99999 267.449L5.99999 267.449L5.99999 235.281L3.99999 235.281ZM4.99998 382.586L4.99998 381.586L3.99998 381.586L3.99998 382.586L4.99998 382.586ZM4.99998 414.754L3.99998 414.754L3.99998 415.754L4.99998 415.754L4.99998 414.754ZM131.826 414.754L131.826 415.754L132.826 415.754L132.826 414.754L131.826 414.754ZM131.826 383.904L132.826 383.904L132.826 383.365L132.376 383.069L131.826 383.904ZM54.3066 332.928L53.3066 332.928L53.3066 333.467L53.7572 333.763L54.3066 332.928ZM54.3066 331.258L54.3066 330.258L53.3066 330.258L53.3066 331.258L54.3066 331.258ZM131.826 331.258L131.826 332.258L132.826 332.258L132.826 331.258L131.826 331.258ZM131.826 299.09L132.826 299.09L132.826 298.09L131.826 298.09L131.826 299.09ZM4.99999 299.09L4.99999 298.09L3.99999 298.09L3.99999 299.09L4.99999 299.09ZM4.99999 329.939L3.99999 329.939L3.99999 330.478L4.45011 330.775L4.99999 329.939ZM82.4316 380.916L83.4316 380.916L83.4316 380.377L82.9815 380.081L82.4316 380.916ZM82.4316 382.586L82.4316 383.586L83.4316 383.586L83.4316 382.586L82.4316 382.586ZM3.99998 382.586L3.99998 414.754L5.99998 414.754L5.99998 382.586L3.99998 382.586ZM4.99998 415.754L131.826 415.754L131.826 413.754L4.99998 413.754L4.99998 415.754ZM132.826 414.754L132.826 383.904L130.826 383.904L130.826 414.754L132.826 414.754ZM132.376 383.069L54.8561 332.092L53.7572 333.763L131.277 384.74L132.376 383.069ZM55.3066 332.928L55.3066 331.258L53.3066 331.258L53.3066 332.928L55.3066 332.928ZM54.3066 332.258L131.826 332.258L131.826 330.258L54.3066 330.258L54.3066 332.258ZM132.826 331.258L132.826 299.09L130.826 299.09L130.826 331.258L132.826 331.258ZM131.826 298.09L4.99999 298.09L4.99999 300.09L131.826 300.09L131.826 298.09ZM3.99999 299.09L3.99999 329.939L5.99999 329.939L5.99999 299.09L3.99999 299.09ZM4.45011 330.775L81.8817 381.751L82.9815 380.081L5.54986 329.104L4.45011 330.775ZM81.4316 380.916L81.4316 382.586L83.4316 382.586L83.4316 380.916L81.4316 380.916ZM82.4316 381.586L4.99998 381.586L4.99998 383.586L82.4316 383.586L82.4316 381.586Z" fill="white"/>
</svg>
