<svg width="153" height="575" viewBox="0 0 153 575" fill="none" xmlns="http://www.w3.org/2000/svg">
<path d="M99.5644 107.148L152.826 107.148L152.826 75.5957L99.5644 75.5957L99.5644 71.0254L152.826 36.2207L152.826 2.03125L89.457 44.5703L26 0.0976488L26 36.9238L75.5703 70.8496L75.5703 75.5957L26 75.5957L26 107.148L75.5703 107.148L75.5703 111.895L26 145.82L26 182.998L90.0723 138.174L152.826 180.361L152.826 146.523L99.5644 111.719L99.5644 107.148ZM82.6016 240.215L126.986 243.115L126.986 278.711L52.0156 278.711L52.0156 232.656L53.6855 232.656C59.5742 237.402 69.0664 239.336 82.6016 240.215ZM26 219.297L26 297.695L0.951159 297.695L0.951157 326.699L52.0156 326.699L52.0156 310.879L152.826 310.879L152.826 214.902L85.4141 210.684C67.9238 209.629 58.6953 207.52 52.0156 198.906L52.0156 190.293L0.951163 190.293L0.951162 219.297L26 219.297ZM24.6816 369.502C24.6816 394.814 38.7441 406.68 62.2988 416.787L152.826 455.635L152.826 421.621L88.4902 399.033L88.4902 397.363L152.826 373.633L152.826 339.531L57.9043 381.016C52.1914 376.797 50.7851 371.436 50.7851 364.58C50.7851 358.867 51.4883 356.758 51.5762 356.494L26.0879 356.494C25.9121 356.758 24.6816 362.559 24.6816 369.502ZM26 537.373L126.898 537.373L126.898 574.023L152.826 574.023L152.826 468.643L126.898 468.643L126.898 505.205L26 505.205L26 537.373Z" fill="white"/>
</svg>
