<svg width="129" height="771" viewBox="0 0 129 771" fill="none" xmlns="http://www.w3.org/2000/svg">
<path d="M2 61.7285C2 88.8867 16.3262 106.025 38.5625 106.025C54.7344 106.025 67.6543 93.1934 68.5332 76.582L70.2031 76.582C72.0488 90.0293 83.5625 100.225 97.1855 100.225C116.873 100.225 128.826 85.2832 128.826 59.9707L128.826 0.820311L2 0.820305L2 61.7285ZM106.062 33.0762L106.062 51.3574C106.062 62.3437 100.613 68.7598 91.5605 68.7598C82.5957 68.7598 77.1465 61.9043 77.1465 50.1269L77.1465 33.0762L106.062 33.0762ZM24.7637 33.0762L57.5469 33.0762L57.5469 52.4121C57.5469 65.7715 51.7461 73.2422 41.375 73.2422C30.6523 73.2422 24.7637 65.9473 24.7637 52.5879L24.7637 33.0762ZM1.99999 245.859L128.826 245.859L128.826 213.691L79.0801 213.691L79.0801 163.154L128.826 163.154L128.826 130.898L1.99999 130.898L1.99999 163.154L53.1523 163.154L53.1523 213.691L1.99999 213.691L1.99999 245.859ZM0.681627 298.33C0.681626 323.643 14.7441 335.508 38.2988 345.615L128.826 384.463L128.826 350.449L64.4902 327.861L64.4902 326.191L128.826 302.461L128.826 268.359L33.9043 309.844C28.1914 305.625 26.7851 300.264 26.7851 293.408C26.7851 287.695 27.4883 285.586 27.5762 285.322L2.08788 285.322C1.9121 285.586 0.681627 291.387 0.681627 298.33ZM1.99998 466.201L102.898 466.201L102.898 502.852L128.826 502.852L128.826 397.471L102.898 397.471L102.898 434.033L1.99998 434.033L1.99998 466.201ZM128.826 527.637L1.99998 527.637L1.99997 559.893L39.1777 559.893L39.1777 581.25C39.1777 609.463 56.8437 628.887 83.8261 628.887C111.072 628.887 128.826 610.43 128.826 583.184L128.826 527.637ZM104.041 559.893L104.041 574.658C104.041 588.281 97.0976 596.279 83.7383 596.279C70.5547 596.279 63.5234 588.193 63.5234 574.482L63.5234 559.893L104.041 559.893ZM1.99997 737.871L1.99997 770.039L128.826 770.039L128.826 739.189L51.3066 688.213L51.3066 686.543L128.826 686.543L128.826 654.375L1.99997 654.375L1.99997 685.225L79.4316 736.201L79.4316 737.871L1.99997 737.871Z" fill="white"/>
</svg>
